HIERARCHY
ROOT hip
{
  OFFSET 0 90.174 2.4664
  CHANNELS 6 Xposition Yposition Zposition Zrotation Xrotation Yrotation
  JOINT abdomen
  {
    OFFSET 0 -1.186 -1.5018
    CHANNELS 6 Xposition Yposition Zposition Zrotation Xrotation Yrotation
    JOINT abdomen2
    {
      OFFSET 0 9.964 0.2134
      CHANNELS 6 Xposition Yposition Zposition Zrotation Xrotation Yrotation
      JOINT chest
      {
        OFFSET 0 13.134 -3.2573
        CHANNELS 6 Xposition Yposition Zposition Zrotation Xrotation Yrotation
        JOINT neck
        {
          OFFSET 0 20.686 -1.6905
          CHANNELS 6 Xposition Yposition Zposition Zrotation Xrotation Yrotation
          JOINT head
          {
            OFFSET 0 7.238 -0.1237
            CHANNELS 6 Xposition Yposition Zposition Zrotation Xrotation Yrotation
            End Site
            {
              OFFSET 0 0 0
            }
          }
        }
        JOINT lCollar
        {
          OFFSET 1.7069 20.075 5.0056
          CHANNELS 6 Xposition Yposition Zposition Zrotation Xrotation Yrotation
          JOINT lShldr
          {
            OFFSET 13.6458 -0.047 -4.849
            CHANNELS 6 Xposition Yposition Zposition Zrotation Xrotation Yrotation
            JOINT lForeArm
            {
              OFFSET 28.3255 -0.9759 2.2888
              CHANNELS 6 Xposition Yposition Zposition Zrotation Xrotation Yrotation
              JOINT lHand
              {
                OFFSET 22.1583 -0.53 10.8316
                CHANNELS 6 Xposition Yposition Zposition Zrotation Xrotation Yrotation
                JOINT lThumb1
                {
                  OFFSET 0.786 0.112 2.5817
                  CHANNELS 6 Xposition Yposition Zposition Zrotation Xrotation Yrotation
                  JOINT lThumb2
                  {
                    OFFSET 0.3601 -0.878 4.2331
                    CHANNELS 6 Xposition Yposition Zposition Zrotation Xrotation Yrotation
                    JOINT lThumb2_End
                    {
                      OFFSET 1.8127 -1.216 2.2227
                      CHANNELS 6 Xposition Yposition Zposition Zrotation Xrotation Yrotation
                      End Site
                      {
                        OFFSET 0.0181 -0.0122 0.0222
                      }
                    }
                  }
                }
                JOINT lCarpal1
                {
                  OFFSET 0.9571 1.114 1.7695
                  CHANNELS 6 Xposition Yposition Zposition Zrotation Xrotation Yrotation
                  JOINT lIndex1
                  {
                    OFFSET 4.1246 0.487 4.1451
                    CHANNELS 6 Xposition Yposition Zposition Zrotation Xrotation Yrotation
                    JOINT lIndex2
                    {
                      OFFSET 3.4052 -1.454 2.7682
                      CHANNELS 6 Xposition Yposition Zposition Zrotation Xrotation Yrotation
                      JOINT lIndex2_End
                      {
                        OFFSET 1.4531 -1.795 1.2713
                        CHANNELS 6 Xposition Yposition Zposition Zrotation Xrotation Yrotation
                        End Site
                        {
                          OFFSET 0.0145 -0.0179 0.0127
                        }
                      }
                    }
                  }
                  JOINT lMid1
                  {
                    OFFSET 5.6954 0.21 2.1184
                    CHANNELS 6 Xposition Yposition Zposition Zrotation Xrotation Yrotation
                    JOINT lMid2
                    {
                      OFFSET 3.9766 -1.54 2.3863
                      CHANNELS 6 Xposition Yposition Zposition Zrotation Xrotation Yrotation
                      JOINT lMid2_End
                      {
                        OFFSET 1.4042 -1.926 1.125
                        CHANNELS 6 Xposition Yposition Zposition Zrotation Xrotation Yrotation
                        End Site
                        {
                          OFFSET 0.014 -0.0193 0.0113
                        }
                      }
                    }
                  }
                }
                JOINT lCarpal2
                {
                  OFFSET 2.0956 0.66 -0.3894
                  CHANNELS 6 Xposition Yposition Zposition Zrotation Xrotation Yrotation
                  JOINT lRing1
                  {
                    OFFSET 5.0395 -0.09 2.4971
                    CHANNELS 6 Xposition Yposition Zposition Zrotation Xrotation Yrotation
                    JOINT lRing2
                    {
                      OFFSET 3.7921 -1.552 1.4806
                      CHANNELS 6 Xposition Yposition Zposition Zrotation Xrotation Yrotation
                      JOINT lRing2_End
                      {
                        OFFSET 1.4655 -1.808 0.9609
                        CHANNELS 6 Xposition Yposition Zposition Zrotation Xrotation Yrotation
                        End Site
                        {
                          OFFSET 0.0147 -0.0181 0.0096
                        }
                      }
                    }
                  }
                  JOINT lPinky1
                  {
                    OFFSET 4.9141 -1.269 0.3591
                    CHANNELS 6 Xposition Yposition Zposition Zrotation Xrotation Yrotation
                    JOINT lPinky2
                    {
                      OFFSET 3.1477 -1.685 0.8462
                      CHANNELS 6 Xposition Yposition Zposition Zrotation Xrotation Yrotation
                      JOINT lPinky2_End
                      {
                        OFFSET 0.8055 -1.585 0.7955
                        CHANNELS 6 Xposition Yposition Zposition Zrotation Xrotation Yrotation
                        End Site
                        {
                          OFFSET 0.0081 -0.0158 0.008
                        }
                      }
                    }
                  }
                }
              }
            }
          }
        }
        JOINT rCollar
        {
          OFFSET -1.7069 20.075 5.0056
          CHANNELS 6 Xposition Yposition Zposition Zrotation Xrotation Yrotation
          JOINT rShldr
          {
            OFFSET -13.6458 -0.047 -4.849
            CHANNELS 6 Xposition Yposition Zposition Zrotation Xrotation Yrotation
            JOINT rForeArm
            {
              OFFSET -28.3255 -0.9759 2.2888
              CHANNELS 6 Xposition Yposition Zposition Zrotation Xrotation Yrotation
              JOINT rHand
              {
                OFFSET -22.1583 -0.53 10.8316
                CHANNELS 6 Xposition Yposition Zposition Zrotation Xrotation Yrotation
                JOINT rThumb1
                {
                  OFFSET -0.786 0.112 2.5817
                  CHANNELS 6 Xposition Yposition Zposition Zrotation Xrotation Yrotation
                  JOINT rThumb2
                  {
                    OFFSET -0.3601 -0.878 4.2331
                    CHANNELS 6 Xposition Yposition Zposition Zrotation Xrotation Yrotation
                    JOINT rThumb2_End
                    {
                      OFFSET -1.8127 -1.216 2.2227
                      CHANNELS 6 Xposition Yposition Zposition Zrotation Xrotation Yrotation
                      End Site
                      {
                        OFFSET -0.0181 -0.0122 0.0222
                      }
                    }
                  }
                }
                JOINT rCarpal1
                {
                  OFFSET -0.9571 1.114 1.7695
                  CHANNELS 6 Xposition Yposition Zposition Zrotation Xrotation Yrotation
                  JOINT rIndex1
                  {
                    OFFSET -4.1246 0.487 4.1451
                    CHANNELS 6 Xposition Yposition Zposition Zrotation Xrotation Yrotation
                    JOINT rIndex2
                    {
                      OFFSET -3.4052 -1.454 2.7682
                      CHANNELS 6 Xposition Yposition Zposition Zrotation Xrotation Yrotation
                      JOINT rIndex2_End
                      {
                        OFFSET -1.4531 -1.795 1.2713
                        CHANNELS 6 Xposition Yposition Zposition Zrotation Xrotation Yrotation
                        End Site
                        {
                          OFFSET -0.0145 -0.018 0.0127
                        }
                      }
                    }
                  }
                  JOINT rMid1
                  {
                    OFFSET -5.6954 0.21 2.1184
                    CHANNELS 6 Xposition Yposition Zposition Zrotation Xrotation Yrotation
                    JOINT rMid2
                    {
                      OFFSET -3.9766 -1.54 2.3863
                      CHANNELS 6 Xposition Yposition Zposition Zrotation Xrotation Yrotation
                      JOINT rMid2_End
                      {
                        OFFSET -1.4042 -1.926 1.125
                        CHANNELS 6 Xposition Yposition Zposition Zrotation Xrotation Yrotation
                        End Site
                        {
                          OFFSET -0.014 -0.0193 0.0113
                        }
                      }
                    }
                  }
                }
                JOINT rCarpal2
                {
                  OFFSET -2.0956 0.66 -0.3894
                  CHANNELS 6 Xposition Yposition Zposition Zrotation Xrotation Yrotation
                  JOINT rRing1
                  {
                    OFFSET -5.0395 -0.09 2.4971
                    CHANNELS 6 Xposition Yposition Zposition Zrotation Xrotation Yrotation
                    JOINT rRing2
                    {
                      OFFSET -3.7921 -1.552 1.4806
                      CHANNELS 6 Xposition Yposition Zposition Zrotation Xrotation Yrotation
                      JOINT rRing2_End
                      {
                        OFFSET -1.4655 -1.808 0.9609
                        CHANNELS 6 Xposition Yposition Zposition Zrotation Xrotation Yrotation
                        End Site
                        {
                          OFFSET -0.0147 -0.0181 0.0096
                        }
                      }
                    }
                  }
                  JOINT rPinky1
                  {
                    OFFSET -4.9141 -1.269 0.3592
                    CHANNELS 6 Xposition Yposition Zposition Zrotation Xrotation Yrotation
                    JOINT rPinky2
                    {
                      OFFSET -3.1477 -1.685 0.8462
                      CHANNELS 6 Xposition Yposition Zposition Zrotation Xrotation Yrotation
                      JOINT rPinky2_End
                      {
                        OFFSET -0.8055 -1.585 0.7955
                        CHANNELS 6 Xposition Yposition Zposition Zrotation Xrotation Yrotation
                        End Site
                        {
                          OFFSET -0.0081 -0.0158 0.008
                        }
                      }
                    }
                  }
                }
              }
            }
          }
        }
      }
    }
  }
  JOINT lThigh
  {
    OFFSET 8.367 -8.2066 0.5982
    CHANNELS 6 Xposition Yposition Zposition Zrotation Xrotation Yrotation
    JOINT lShin
    {
      OFFSET 2.1923 -43.463 -0.4932
      CHANNELS 6 Xposition Yposition Zposition Zrotation Xrotation Yrotation
      JOINT lFoot
      {
        OFFSET 0.7333 -45.8593 -2.6451
        CHANNELS 6 Xposition Yposition Zposition Zrotation Xrotation Yrotation
        End Site
        {
          OFFSET 2.6618 -4.2699 12.3931
        }
      }
    }
  }
  JOINT rThigh
  {
    OFFSET -8.367 -8.2066 0.5982
    CHANNELS 6 Xposition Yposition Zposition Zrotation Xrotation Yrotation
    JOINT rShin
    {
      OFFSET -2.1923 -43.463 -0.4931
      CHANNELS 6 Xposition Yposition Zposition Zrotation Xrotation Yrotation
      JOINT rFoot
      {
        OFFSET -0.7333 -45.8593 -2.6451
        CHANNELS 6 Xposition Yposition Zposition Zrotation Xrotation Yrotation
        End Site
        {
          OFFSET -2.6618 -4.2699 12.3931
        }
      }
    }
  }
}
MOTION
Frames:	4
Frame Time:	0.0333333
0 90.174 2.4664 0 0 -0 0 -1.186 -1.5018 0 0 -0 0 9.964 0.2134 0 0 -0 0 13.134 -3.2573 0 0 -0 0 20.686 -1.6905 0 0 -0 0 7.238 -0.1237 0 0 -0 1.7069 20.075 5.0056 0 0 -0 13.6458 -0.047 -4.849 1.66051 0.0835086 5.75766 28.3255 -0.9759 2.2888 -0.0175111 0.895433 15.7816 22.1583 -0.53 10.8316 7.95139e-016 -1.98785e-016 -0 0.786 0.112 2.5817 5.46658e-016 -3.97569e-016 -0 0.3601 -0.878 4.2331 5.96354e-016 0 -0 1.8127 -1.216 2.2227 3.97569e-016 1.98785e-016 9.54166e-015 0.9571 1.114 1.7695 1.49089e-016 -3.97569e-016 -0 4.1246 0.487 4.1451 6.4605e-016 0 3.18055e-015 3.4052 -1.454 2.7682 5.96354e-016 0 3.18055e-015 1.4531 -1.795 1.2713 8.94531e-016 -1.98785e-016 6.36111e-015 5.6954 0.21 2.1184 6.4605e-016 0 3.18055e-015 3.9766 -1.54 2.3863 5.96354e-016 0 3.18055e-015 1.4042 -1.926 1.125 8.94531e-016 -1.98785e-016 6.36111e-015 2.0956 0.66 -0.3894 1.49089e-016 -3.97569e-016 -0 5.0395 -0.09 2.4971 6.4605e-016 0 3.18055e-015 3.7921 -1.552 1.4806 5.96354e-016 0 3.18055e-015 1.4655 -1.808 0.9609 8.94531e-016 -1.98785e-016 6.36111e-015 4.9141 -1.269 0.3591 6.4605e-016 0 3.18055e-015 3.1477 -1.685 0.8462 5.96354e-016 0 3.18055e-015 0.8055 -1.585 0.7955 8.94531e-016 -1.98785e-016 6.36111e-015 -1.7069 20.075 5.0056 0 0 -0 -13.6458 -0.047 -4.849 -1.4496 0.0636048 -5.0245 -28.3255 -0.9759 2.2888 -1.74811 1.20616 -16.8394 -22.1583 -0.53 10.8316 -1.19271e-015 1.98785e-016 -3.18055e-015 -0.786 0.112 2.5817 -3.97569e-016 1.98785e-016 -3.18055e-015 -0.3601 -0.878 4.2331 -2.98177e-016 1.98785e-016 -3.18055e-015 -1.8127 -1.216 2.2227 -2.98177e-016 3.97569e-016 -0 -0.9571 1.114 1.7695 4.96962e-016 0 -6.36111e-015 -4.1246 0.487 4.1451 -9.93923e-017 3.97569e-016 -0 -3.4052 -1.454 2.7682 -8.94531e-016 5.96354e-016 -0 -1.4531 -1.795 1.2713 -3.97569e-016 3.97569e-016 -0 -5.6954 0.21 2.1184 -9.93923e-017 3.97569e-016 -0 -3.9766 -1.54 2.3863 -8.94531e-016 5.96354e-016 -0 -1.4042 -1.926 1.125 -3.97569e-016 3.97569e-016 -0 -2.0956 0.66 -0.3894 4.96962e-016 0 -6.36111e-015 -5.0395 -0.09 2.4971 -9.93923e-017 3.97569e-016 -0 -3.7921 -1.552 1.4806 -8.94531e-016 5.96354e-016 -0 -1.4655 -1.808 0.9609 -3.97569e-016 3.97569e-016 -0 -4.9141 -1.269 0.3592 -9.93923e-017 3.97569e-016 -0 -3.1477 -1.685 0.8462 -8.94531e-016 5.96354e-016 -0 -0.8055 -1.585 0.7955 -3.97569e-016 3.97569e-016 -0 8.367 -8.2066 0.5982 -4.66115 -1.03232 0.120763 2.1923 -43.463 -0.4932 0.00990601 1.55097 0.177175 0.7333 -45.8593 -2.6451 4.65196 -0.54114 -0.255042 -8.367 -8.2066 0.5982 4.66115 -1.03222 -0.120763 -2.1923 -43.463 -0.4931 -0.00990459 1.5509 -0.177176 -0.7333 -45.8593 -2.6451 -4.65196 -0.541171 0.255041 
0.000169536 34.0422 12.6897 -5.13617e-015 15.0032 180 0 -1.186 -1.5018 0.0195144 -6.35512 -0.086944 -3.46945e-018 9.964 0.2134 0.0295304 -12.7103 -0.17331 1.38778e-017 13.134 -3.2573 0.0295304 -12.7103 -0.17331 0 20.686 -1.6905 3.08467e-006 -0.229689 5.91442e-007 -2.77556e-017 7.238 -0.1237 -9.14799e-009 -0.47385 2.48334e-008 1.7069 20.075 5.0056 -8.00266 -0.194465 -0.00133306 13.6458 -0.047 -4.849 -69.5082 1.17013 61.7507 28.3255 -0.9759 2.2888 0.0794762 0.658828 7.78172 22.1583 -0.53 10.8316 -6.51219 2.57103 0.027312 0.786 0.112 2.5817 7.95139e-016 7.95139e-016 6.36111e-015 0.3601 -0.878 4.2331 -1.48314e-007 -1.17068e-006 1.19367e-006 1.8127 -1.216 2.2227 1.59028e-015 -2.38542e-015 3.18055e-015 0.9571 1.114 1.7695 7.95139e-016 0 3.18055e-015 4.1246 0.487 4.1451 1.98785e-015 0 1.59028e-014 3.4052 -1.454 2.7682 -1.48314e-007 -1.17068e-006 1.19367e-006 1.4531 -1.795 1.2713 -3.97569e-016 1.59028e-015 6.36111e-015 5.6954 0.21 2.1184 1.98785e-015 0 1.59028e-014 3.9766 -1.54 2.3863 -1.48314e-007 -1.17068e-006 1.19367e-006 1.4042 -1.926 1.125 -3.97569e-016 1.59028e-015 6.36111e-015 2.0956 0.66 -0.3894 7.95139e-016 0 3.18055e-015 5.0395 -0.09 2.4971 1.98785e-015 0 1.59028e-014 3.7921 -1.552 1.4806 -1.48314e-007 -1.17068e-006 1.19367e-006 1.4655 -1.808 0.9609 -3.97569e-016 1.59028e-015 6.36111e-015 4.9141 -1.269 0.3591 1.98785e-015 0 1.59028e-014 3.1477 -1.685 0.8462 -1.48314e-007 -1.17068e-006 1.19367e-006 0.8055 -1.585 0.7955 -3.97569e-016 1.59028e-015 6.36111e-015 -1.7069 20.075 5.0056 7.99915 -0.194706 -0.00216114 -13.6458 -0.047 -4.849 69.606 0.983952 -61.0224 -28.3255 -0.9759 2.2888 -1.87582 0.750317 -8.85204 -22.1583 -0.53 10.8316 6.49224 2.60876 0.0253967 -0.786 0.112 2.5817 3.97569e-016 -1.59028e-015 -3.18055e-015 -0.3601 -0.878 4.2331 7.95139e-016 2.38542e-015 -0 -1.8127 -1.216 2.2227 -1.59709e-007 -6.89866e-007 -1.8913e-006 -0.9571 1.114 1.7695 -7.95139e-016 -2.38542e-015 -0 -4.1246 0.487 4.1451 3.97569e-016 7.95139e-016 3.18055e-015 -3.4052 -1.454 2.7682 7.95139e-016 3.18055e-015 -6.36111e-015 -1.4531 -1.795 1.2713 -1.59709e-007 -6.89866e-007 -1.8913e-006 -5.6954 0.21 2.1184 3.97569e-016 7.95139e-016 3.18055e-015 -3.9766 -1.54 2.3863 7.95139e-016 3.18055e-015 -6.36111e-015 -1.4042 -1.926 1.125 -1.59709e-007 -6.89866e-007 -1.8913e-006 -2.0956 0.66 -0.3894 -7.95139e-016 -2.38542e-015 -0 -5.0395 -0.09 2.4971 3.97569e-016 7.95139e-016 3.18055e-015 -3.7921 -1.552 1.4806 7.95139e-016 3.18055e-015 -6.36111e-015 -1.4655 -1.808 0.9609 -1.59709e-007 -6.89866e-007 -1.8913e-006 -4.9141 -1.269 0.3592 3.97569e-016 7.95139e-016 3.18055e-015 -3.1477 -1.685 0.8462 7.95139e-016 3.18055e-015 -6.36111e-015 -0.8055 -1.585 0.7955 -1.59709e-007 -6.89866e-007 -1.8913e-006 8.367 -8.2066 0.5982 34.0251 -24.2753 36.8157 2.1923 -43.463 -0.4932 138.064 43.4983 -150.365 0.7333 -45.8593 -2.6451 9.59475 72.8903 8.89939 -8.367 -8.2066 0.5982 -34.03 -24.2734 -36.8204 -2.1923 -43.463 -0.4931 -138.066 43.4996 150.36 -0.7333 -45.8593 -2.6451 -9.59998 72.8906 -8.89983 
0.000206059 33.9029 12.7252 -5.07815e-015 15.4443 180 -2.71051e-020 -1.186 -1.5018 0.0195144 -6.35515 -0.0869438 0 9.964 0.2134 0.0295304 -12.7103 -0.17331 -1.38778e-017 13.134 -3.2573 0.0295304 -12.7103 -0.17331 0 20.686 -1.6905 0.028949 -0.285861 0.00260326 0 7.238 -0.1237 -6.06864e-009 -0.939212 6.69592e-008 1.7069 20.075 5.0056 -6.83572 0.290644 -1.25744 13.6458 -0.047 -4.849 -70.1392 0.418112 62.4487 28.3255 -0.9759 2.2888 -1.55154 0.96557 6.35023 22.1583 -0.53 10.8316 -5.71124 2.37049 1.1795 0.786 0.112 2.5817 8.82781e-032 7.95139e-016 -6.36111e-015 0.3601 -0.878 4.2331 0 0 -3.18055e-015 1.8127 -1.216 2.2227 0 0 -3.18055e-015 0.9571 1.114 1.7695 8.82781e-032 7.95139e-016 -6.36111e-015 4.1246 0.487 4.1451 1.19271e-015 1.59028e-015 -3.18055e-015 3.4052 -1.454 2.7682 0 0 -3.18055e-015 1.4531 -1.795 1.2713 0 0 -3.18055e-015 5.6954 0.21 2.1184 1.19271e-015 1.59028e-015 -3.18055e-015 3.9766 -1.54 2.3863 0 0 -3.18055e-015 1.4042 -1.926 1.125 0 0 -3.18055e-015 2.0956 0.66 -0.3894 8.82781e-032 7.95139e-016 -6.36111e-015 5.0395 -0.09 2.4971 1.19271e-015 1.59028e-015 -3.18055e-015 3.7921 -1.552 1.4806 0 0 -3.18055e-015 1.4655 -1.808 0.9609 0 0 -3.18055e-015 4.9141 -1.269 0.3591 1.19271e-015 1.59028e-015 -3.18055e-015 3.1477 -1.685 0.8462 0 0 -3.18055e-015 0.8055 -1.585 0.7955 0 0 -3.18055e-015 -1.7069 20.075 5.0056 6.82891 0.297862 1.25547 -13.6458 -0.047 -4.849 70.2332 0.232724 -61.717 -28.3255 -0.9759 2.2888 -0.2179 1.00314 -7.41313 -22.1583 -0.53 10.8316 5.66893 2.42391 -1.12494 -0.786 0.112 2.5817 1.61064e-007 -5.99873e-007 5.80876e-007 -0.3601 -0.878 4.2331 1.61064e-007 -5.99873e-007 5.80876e-007 -1.8127 -1.216 2.2227 -1.51306e-007 1.16175e-006 1.19975e-006 -0.9571 1.114 1.7695 -7.95139e-016 0 3.18055e-015 -4.1246 0.487 4.1451 1.61064e-007 -5.99873e-007 5.80876e-007 -3.4052 -1.454 2.7682 1.61064e-007 -5.99873e-007 5.80876e-007 -1.4531 -1.795 1.2713 -1.51306e-007 1.16175e-006 1.19975e-006 -5.6954 0.21 2.1184 1.61064e-007 -5.99873e-007 5.80876e-007 -3.9766 -1.54 2.3863 1.61064e-007 -5.99873e-007 5.80876e-007 -1.4042 -1.926 1.125 -1.51306e-007 1.16175e-006 1.19975e-006 -2.0956 0.66 -0.3894 -7.95139e-016 0 3.18055e-015 -5.0395 -0.09 2.4971 1.61064e-007 -5.99873e-007 5.80876e-007 -3.7921 -1.552 1.4806 1.61064e-007 -5.99873e-007 5.80876e-007 -1.4655 -1.808 0.9609 -1.51306e-007 1.16175e-006 1.19975e-006 -4.9141 -1.269 0.3592 1.61064e-007 -5.99873e-007 5.80876e-007 -3.1477 -1.685 0.8462 1.61064e-007 -5.99873e-007 5.80876e-007 -0.8055 -1.585 0.7955 -1.51306e-007 1.16175e-006 1.19975e-006 8.367 -8.2066 0.5982 34.3967 -23.9302 36.8075 2.1923 -43.463 -0.4932 138.069 43.4968 -150.384 0.7333 -45.8593 -2.6451 10.9306 72.864 7.84227 -8.367 -8.2066 0.5982 -34.4018 -23.9284 -36.8133 -2.1923 -43.463 -0.4931 -138.07 43.4981 150.38 -0.7333 -45.8593 -2.6451 -10.9378 72.865 -7.8403 
0.000244091 33.7634 12.7612 -5.01947e-015 15.8885 180 0 -1.186 -1.5018 0.0195144 -6.3551 -0.0869439 3.46945e-018 9.964 0.2134 0.0295304 -12.7103 -0.17331 -1.38778e-017 13.134 -3.2573 0.0295304 -12.7103 -0.17331 5.55112e-017 20.686 -1.6905 0.0579041 -0.342793 0.00523592 8.32667e-017 7.238 -0.1237 3.19903e-008 -1.4051 5.00027e-008 1.7069 20.075 5.0056 -5.65367 0.751704 -2.52827 13.6458 -0.047 -4.849 -70.7617 -0.342533 63.1392 28.3255 -0.9759 2.2888 -3.18322 1.3148 4.92034 22.1583 -0.53 10.8316 -4.90442 2.18563 2.33721 0.786 0.112 2.5817 -6.13753e-009 5.76787e-007 -1.77807e-006 0.3601 -0.878 4.2331 3.97569e-016 3.18055e-015 -3.18055e-015 1.8127 -1.216 2.2227 -6.13752e-009 5.76787e-007 -1.77807e-006 0.9571 1.114 1.7695 -3.97569e-016 -7.95139e-016 -3.18055e-015 4.1246 0.487 4.1451 -6.13753e-009 5.76787e-007 -1.77807e-006 3.4052 -1.454 2.7682 8.82781e-032 7.95139e-016 -6.36111e-015 1.4531 -1.795 1.2713 -6.13752e-009 5.76787e-007 -1.77807e-006 5.6954 0.21 2.1184 -6.13753e-009 5.76787e-007 -1.77807e-006 3.9766 -1.54 2.3863 8.82781e-032 7.95139e-016 -6.36111e-015 1.4042 -1.926 1.125 -6.13752e-009 5.76787e-007 -1.77807e-006 2.0956 0.66 -0.3894 -3.97569e-016 -7.95139e-016 -3.18055e-015 5.0395 -0.09 2.4971 -6.13753e-009 5.76787e-007 -1.77807e-006 3.7921 -1.552 1.4806 8.82781e-032 7.95139e-016 -6.36111e-015 1.4655 -1.808 0.9609 -6.13752e-009 5.76787e-007 -1.77807e-006 4.9141 -1.269 0.3591 -6.13753e-009 5.76787e-007 -1.77807e-006 3.1477 -1.685 0.8462 8.82781e-032 7.95139e-016 -6.36111e-015 0.8055 -1.585 0.7955 -6.13752e-009 5.76787e-007 -1.77807e-006 -1.7069 20.075 5.0056 5.64332 0.766322 2.52806 -13.6458 -0.047 -4.849 70.852 -0.526972 -62.4042 -28.3255 -0.9759 2.2888 1.44224 1.29912 -5.97426 -22.1583 -0.53 10.8316 4.84003 2.25521 -2.2807 -0.786 0.112 2.5817 -1.35558e-007 -1.14615e-007 -1.14853e-007 -0.3601 -0.878 4.2331 3.97569e-016 -3.18055e-015 1.59028e-014 -1.8127 -1.216 2.2227 3.12947e-007 -1.76215e-006 -6.17434e-007 -0.9571 1.114 1.7695 4.41391e-032 7.95139e-016 -3.18055e-015 -4.1246 0.487 4.1451 -1.35558e-007 -1.14615e-007 -1.14853e-007 -3.4052 -1.454 2.7682 2.64834e-031 -1.59028e-015 9.54166e-015 -1.4531 -1.795 1.2713 3.12947e-007 -1.76215e-006 -6.17434e-007 -5.6954 0.21 2.1184 -1.35558e-007 -1.14615e-007 -1.14853e-007 -3.9766 -1.54 2.3863 2.64834e-031 -1.59028e-015 9.54166e-015 -1.4042 -1.926 1.125 3.12947e-007 -1.76215e-006 -6.17434e-007 -2.0956 0.66 -0.3894 4.41391e-032 7.95139e-016 -3.18055e-015 -5.0395 -0.09 2.4971 -1.35558e-007 -1.14615e-007 -1.14853e-007 -3.7921 -1.552 1.4806 2.64834e-031 -1.59028e-015 9.54166e-015 -1.4655 -1.808 0.9609 3.12947e-007 -1.76215e-006 -6.17434e-007 -4.9141 -1.269 0.3592 -1.35558e-007 -1.14615e-007 -1.14853e-007 -3.1477 -1.685 0.8462 2.64834e-031 -1.59028e-015 9.54166e-015 -0.8055 -1.585 0.7955 3.12947e-007 -1.76215e-006 -6.17434e-007 8.367 -8.2066 0.5982 34.7678 -23.5852 36.7965 2.1923 -43.463 -0.4932 138.074 43.4954 -150.404 0.7333 -45.8593 -2.6451 12.2623 72.8306 6.78903 -8.367 -8.2066 0.5982 -34.7731 -23.5836 -36.8034 -2.1923 -43.463 -0.4931 -138.075 43.4966 150.4 -0.7333 -45.8593 -2.6451 -12.2717 72.8321 -6.78442 
